<!-- Generated by IcoMoon.io -->
<svg version="1.1" xmlns="http://www.w3.org/2000/svg" width="32" height="32" viewBox="0 0 32 32">
<title>315102</title>
<path d="M14.853 3.232c-0.117 0.016-0.523 0.069-0.907 0.128-2.805 0.421-5.275 1.637-7.323 3.6-2.011 1.925-3.28 4.331-3.755 7.109-0.171 0.997-0.171 2.949-0.005 3.915 0.528 2.992 2.005 5.621 4.267 7.573 1.952 1.685 4.197 2.715 6.843 3.141 1.051 0.171 2.981 0.171 3.984 0.005 2.24-0.368 4.16-1.136 5.856-2.352 2.085-1.483 3.723-3.579 4.592-5.872 0.539-1.413 0.763-2.565 0.805-4.187 0.027-0.976 0.016-1.221-0.085-1.92-0.267-1.84-0.859-3.467-1.797-4.965-2.048-3.259-5.403-5.44-9.301-6.048-0.699-0.112-2.629-0.187-3.173-0.128zM17.92 3.888c4.539 0.683 8.347 3.685 9.979 7.867 0.245 0.624 0.555 1.733 0.608 2.176l0.037 0.309h-3.408l-0.149-0.549c-0.784-2.917-2.891-5.2-5.803-6.283-1.024-0.379-2.037-0.555-3.264-0.555-0.96 0-1.488 0.064-2.331 0.272-2.613 0.645-4.88 2.448-6.064 4.816-0.272 0.539-0.512 1.147-0.624 1.579-0.043 0.176-0.107 0.411-0.133 0.517l-0.053 0.203h-3.317l0.037-0.283c0.021-0.149 0.112-0.555 0.197-0.891 1.339-5.099 5.835-8.811 11.248-9.28 0.731-0.064 2.267-0.011 3.040 0.101zM13.867 10.4v2.773h4.747v-2.693c0-1.483 0.011-2.693 0.027-2.693s0.24 0.080 0.496 0.181c4.421 1.707 6.677 6.48 5.093 10.779-0.795 2.149-2.475 3.947-4.592 4.901-0.416 0.187-1.152 0.459-1.248 0.459-0.021 0-0.043-1.2-0.043-2.667v-2.667h-4.693v5.387l-0.144-0.032c-0.085-0.021-0.363-0.112-0.629-0.208-2.144-0.768-3.893-2.315-4.896-4.336-0.603-1.205-0.853-2.283-0.853-3.664 0-1.157 0.16-2.032 0.565-3.067 0.757-1.92 2.315-3.595 4.251-4.56 0.485-0.245 1.632-0.656 1.856-0.661 0.048-0.005 0.064 0.581 0.064 2.768zM6.768 17.771c0.101 0.517 0.469 1.557 0.736 2.085 1.296 2.581 3.813 4.459 6.683 4.976 1.595 0.288 3.28 0.16 4.827-0.357 2.997-1.019 5.317-3.525 6.005-6.485l0.128-0.549h3.477l-0.096 0.549c-0.747 4.384-3.904 8.059-8.229 9.579-1.477 0.517-2.656 0.715-4.299 0.715-1.659 0-2.992-0.224-4.459-0.757-3.467-1.248-6.277-3.984-7.509-7.301-0.347-0.933-0.667-2.213-0.672-2.693 0-0.085 0.117-0.091 1.669-0.091h1.669l0.069 0.331z"></path>
<path d="M15.413 4.96c0 0.069 0.037 0.107 0.107 0.107 0.085 0 0.107 0.037 0.107 0.203 0 0.139-0.032 0.219-0.107 0.267-0.155 0.096-0.149 0.453 0.011 0.565 0.16 0.117 0.32 0.107 0.459-0.021 0.149-0.139 0.155-0.389 0.011-0.533-0.069-0.069-0.107-0.176-0.107-0.32 0-0.192-0.011-0.213-0.133-0.213-0.085 0-0.133-0.032-0.133-0.080 0-0.043-0.048-0.080-0.107-0.080-0.069 0-0.107 0.037-0.107 0.107zM15.867 5.813c0 0.256-0.011 0.293-0.107 0.293-0.085 0-0.112-0.043-0.123-0.235-0.021-0.288 0.016-0.389 0.133-0.368 0.080 0.016 0.096 0.075 0.096 0.309z"></path>
<path d="M14.64 4.939c-0.059 0.021-0.016 0.795 0.053 1.077 0.085 0.341 0.56 0.235 0.56-0.128 0-0.219-0.080-0.395-0.181-0.395-0.059 0-0.069 0.080-0.043 0.352 0.021 0.288 0.011 0.352-0.048 0.331-0.053-0.016-0.085-0.171-0.112-0.528-0.059-0.725-0.075-0.773-0.229-0.709z"></path>
<path d="M16.213 4.992c0 0.117 0.112 0.144 0.219 0.043 0.096-0.091 0.101-0.085 0.101 0.075 0 0.133 0.021 0.171 0.107 0.171s0.107-0.037 0.107-0.16c0-0.091 0.021-0.16 0.043-0.16 0.043 0 0.027 0.971-0.016 1.104-0.053 0.165-0.133 0.048-0.133-0.197 0-0.229-0.016-0.267-0.107-0.267s-0.107 0.037-0.107 0.24c0 0.181 0.027 0.251 0.101 0.293 0.155 0.080 0.299 0.064 0.389-0.043 0.112-0.123 0.176-1.040 0.080-1.12-0.101-0.085-0.784-0.064-0.784 0.021z"></path>
<path d="M13.952 5.099c-0.117 0.112-0.112 0.299 0.005 0.277 0.053-0.011 0.107-0.085 0.128-0.192 0.037-0.187-0.005-0.219-0.133-0.085z"></path>
<path d="M14.272 5.557c0.091 0.699 0.091 0.683 0 0.683-0.080 0-0.139-0.16-0.139-0.395 0-0.112-0.021-0.144-0.085-0.117-0.048 0.016-0.096 0.032-0.107 0.032-0.059 0-0.011 0.309 0.064 0.416 0.112 0.16 0.363 0.16 0.469-0.005 0.064-0.096 0.069-0.192 0.027-0.517-0.059-0.459-0.123-0.64-0.224-0.64-0.059 0-0.059 0.091-0.005 0.544z"></path>
<path d="M17.845 5.141c-0.016 0.069-0.112 0.181-0.203 0.245-0.155 0.096-0.16 0.107-0.043 0.075 0.32-0.085 0.48-0.181 0.48-0.277 0-0.059-0.037-0.123-0.085-0.139-0.117-0.043-0.112-0.048-0.149 0.096z"></path>
<path d="M13.045 5.227c-0.32 0.059-0.421 0.283-0.235 0.517 0.069 0.085 0.277 0.091 0.421 0.011 0.085-0.043 0.101-0.101 0.091-0.32-0.011-0.144-0.027-0.256-0.043-0.256-0.016 0.005-0.123 0.027-0.235 0.048zM13.099 5.424c0.016 0.085 0.037 0.176 0.048 0.213 0.027 0.085-0.075 0.149-0.133 0.091-0.021-0.027-0.059-0.139-0.075-0.251-0.032-0.155-0.021-0.197 0.043-0.197 0.048 0 0.096 0.064 0.117 0.144z"></path>
<path d="M13.445 5.387c0.027 0.117 0.043 0.229 0.037 0.251 0 0.027 0.005 0.080 0.027 0.123 0.080 0.219 0.133 0.565 0.091 0.608-0.091 0.091-0.203-0.016-0.24-0.224-0.027-0.176-0.053-0.208-0.139-0.187-0.235 0.064-0.032 0.496 0.235 0.496 0.064 0 0.176-0.037 0.245-0.085 0.107-0.080 0.123-0.123 0.096-0.331-0.016-0.133-0.064-0.272-0.107-0.299-0.048-0.043-0.069-0.117-0.048-0.235 0.021-0.176-0.059-0.331-0.176-0.331-0.053 0-0.059 0.053-0.021 0.213z"></path>
<path d="M18.72 5.307c-0.032 0.043-0.053 0.117-0.043 0.171 0.016 0.069-0.027 0.112-0.144 0.155-0.181 0.064-0.32 0.379-0.267 0.592 0.037 0.16 0.288 0.283 0.581 0.283 0.213 0 0.251-0.016 0.325-0.16 0.112-0.219 0.101-0.443-0.032-0.565-0.112-0.101-0.117-0.101-0.080 0.005 0.043 0.144-0.080 0.56-0.187 0.629-0.133 0.085-0.363 0-0.4-0.149-0.043-0.165 0.085-0.571 0.192-0.603 0.064-0.021 0.069-0.011 0.016 0.048-0.091 0.091-0.085 0.299 0.005 0.331 0.048 0.021 0.064 0 0.048-0.069-0.016-0.053 0.005-0.155 0.043-0.219 0.037-0.069 0.064-0.149 0.059-0.176-0.032-0.107 0.048-0.299 0.123-0.299 0.064 0 0.075 0.037 0.048 0.144-0.021 0.085-0.048 0.171-0.064 0.203-0.021 0.027-0.037 0.085-0.037 0.133-0.005 0.043-0.027 0.133-0.048 0.197-0.021 0.075-0.016 0.123 0.016 0.123 0.085 0 0.165-0.187 0.128-0.309-0.016-0.069-0.005-0.117 0.027-0.117s0.085-0.048 0.117-0.112c0.123-0.219-0.261-0.432-0.427-0.235z"></path>
<path d="M14.96 5.387c-0.112 0.123-0.043 0.144 0.107 0.037 0.059-0.043 0.075-0.085 0.043-0.107s-0.096 0.011-0.149 0.069z"></path>
<path d="M17.312 5.579c-0.085 0.080-0.101 0.139-0.16 0.485-0.027 0.149-0.016 0.176 0.080 0.176 0.117 0 0.133-0.032 0.181-0.389 0.037-0.272 0.133-0.347 0.133-0.096 0 0.091 0.032 0.165 0.085 0.187 0.117 0.048 0.117 0.048 0.139-0.112 0.011-0.075 0.048-0.149 0.085-0.165 0.069-0.021 0.069 0.048-0.021 0.533-0.027 0.123-0.011 0.149 0.085 0.149 0.117 0 0.139-0.032 0.181-0.336 0.032-0.251-0.101-0.411-0.347-0.411-0.091 0-0.208-0.021-0.261-0.053-0.075-0.037-0.123-0.032-0.181 0.032z"></path>
<path d="M19.664 5.589c-0.112 0.123-0.421 0.971-0.389 1.061 0.016 0.037 0.064 0.069 0.107 0.069 0.048 0 0.139-0.181 0.251-0.523 0.181-0.555 0.251-0.683 0.325-0.608 0.027 0.027-0.037 0.277-0.144 0.587-0.219 0.629-0.219 0.651-0.085 0.651 0.080 0 0.139-0.101 0.267-0.496 0.197-0.587 0.203-0.645 0.048-0.752-0.155-0.112-0.272-0.107-0.379 0.011z"></path>
<path d="M11.2 5.824c0.005 0.139 0.405 1.024 0.485 1.072 0.117 0.069 0.352 0.005 0.416-0.117 0.069-0.128-0.080-0.592-0.187-0.592-0.128 0-0.139 0.128-0.027 0.389 0.069 0.16 0.085 0.261 0.053 0.283-0.085 0.053-0.123-0.016-0.341-0.581-0.155-0.4-0.219-0.517-0.299-0.517-0.053 0-0.101 0.032-0.101 0.064z"></path>
<path d="M20.251 6.208c-0.272 0.619-0.251 0.832 0.069 0.832 0.181 0 0.235-0.043 0.368-0.304l0.112-0.224-0.112-0.032c-0.133-0.043-0.117-0.059-0.251 0.251-0.107 0.24-0.224 0.341-0.224 0.187 0-0.037 0.096-0.283 0.213-0.544 0.24-0.544 0.251-0.613 0.117-0.613-0.075 0-0.149 0.123-0.293 0.448z"></path>
<path d="M10.773 5.995c0 0.005 0.123 0.272 0.267 0.587 0.24 0.507 0.368 0.656 0.443 0.523 0.048-0.069-0.427-1.013-0.539-1.072s-0.171-0.075-0.171-0.037z"></path>
<path d="M10.613 6.080c-0.043 0.021-0.144 0.069-0.224 0.101-0.208 0.080-0.192 0.235 0.075 0.779 0.208 0.416 0.309 0.528 0.384 0.411 0.016-0.027-0.091-0.288-0.235-0.587s-0.24-0.555-0.208-0.571c0.027-0.016 0.101 0.075 0.165 0.208 0.096 0.203 0.128 0.229 0.213 0.187 0.091-0.048 0.091-0.064 0.011-0.251-0.048-0.107-0.091-0.229-0.091-0.267 0-0.032-0.005-0.064-0.005-0.059-0.005 0-0.043 0.021-0.085 0.048z"></path>
<path d="M21.744 6.549c-0.144 0.16-0.117 0.368 0.069 0.464 0.208 0.107 0.197 0.107 0.405-0.117 0.101-0.107 0.197-0.181 0.213-0.16 0.037 0.037-0.181 0.411-0.24 0.411-0.021 0-0.043 0.032-0.043 0.069 0 0.112-0.283 0.517-0.363 0.517-0.133 0-0.139-0.091-0.021-0.293 0.096-0.165 0.107-0.203 0.043-0.245-0.043-0.027-0.091-0.048-0.107-0.048-0.069 0-0.165 0.32-0.133 0.448 0.043 0.165 0.299 0.277 0.453 0.192 0.165-0.085 0.288-0.304 0.261-0.448-0.021-0.101 0-0.139 0.096-0.16 0.235-0.059 0.229-0.459 0-0.501-0.053-0.011-0.139-0.064-0.197-0.123-0.128-0.128-0.325-0.128-0.437-0.005zM22.059 6.763c-0.101 0.192-0.181 0.256-0.251 0.187-0.027-0.027 0.011-0.128 0.091-0.251 0.165-0.245 0.293-0.192 0.16 0.064z"></path>
<path d="M9.6 6.613c-0.059 0.059-0.139 0.107-0.181 0.107-0.037 0-0.101 0.037-0.139 0.080s-0.096 0.080-0.133 0.080c-0.123 0-0.256 0.203-0.219 0.336 0.048 0.192 0.24 0.411 0.363 0.411 0.085 0 0.096 0.016 0.048 0.075-0.037 0.043-0.043 0.091-0.016 0.107 0.032 0.016 0.085-0.005 0.123-0.053 0.181-0.219 0.581-0.304 0.741-0.155 0.165 0.149 0.357-0.021 0.203-0.176-0.091-0.091-0.24-0.080-0.576 0.037s-0.416 0.096-0.613-0.197c-0.171-0.256-0.176-0.416-0.005-0.203 0.085 0.101 0.16 0.144 0.213 0.123 0.080-0.032 0.080-0.048 0.005-0.203-0.117-0.219-0.053-0.272 0.096-0.080 0.080 0.096 0.149 0.133 0.208 0.112 0.080-0.032 0.080-0.048 0-0.187-0.048-0.085-0.069-0.171-0.048-0.197 0.027-0.021 0.064-0.005 0.091 0.037 0.123 0.213 0.203 0.283 0.288 0.251 0.069-0.027 0.080-0.059 0.032-0.139-0.149-0.283-0.309-0.336-0.48-0.165z"></path>
<path d="M22.784 7.157c-0.085 0.085-0.080 0.133 0.011 0.165 0.043 0.016 0.128-0.027 0.197-0.101l0.117-0.128h-0.128c-0.075 0-0.16 0.027-0.197 0.064z"></path>
<path d="M23.147 7.189c0 0.075-0.688 0.971-0.747 0.971-0.091 0-0.059-0.133 0.080-0.32 0.085-0.112 0.112-0.203 0.085-0.229-0.080-0.080-0.203-0.005-0.299 0.176-0.080 0.155-0.080 0.176 0 0.299 0.069 0.107 0.123 0.128 0.256 0.117s0.219-0.085 0.448-0.384c0.267-0.347 0.347-0.571 0.229-0.645-0.027-0.016-0.053-0.011-0.053 0.016z"></path>
<path d="M8.357 7.456c-0.101 0.112-0.112 0.213-0.043 0.325 0.043 0.064 0.064 0.069 0.133 0.005 0.080-0.064 0.080-0.075-0.005-0.171-0.059-0.064-0.069-0.117-0.032-0.155 0.059-0.059 0.763 0.763 0.763 0.891s-0.091 0.080-0.261-0.123c-0.133-0.16-0.171-0.181-0.24-0.128-0.069 0.059-0.069 0.085 0.032 0.219 0.181 0.251 0.443 0.245 0.576 0 0.069-0.133 0.032-0.213-0.325-0.64-0.283-0.341-0.437-0.4-0.597-0.224z"></path>
<path d="M23.285 7.739c-0.075 0.091-0.139 0.208-0.139 0.261 0 0.069-0.027 0.091-0.080 0.075-0.128-0.053-0.091 0.027 0.085 0.176 0.133 0.112 0.16 0.171 0.139 0.304-0.011 0.091-0.037 0.203-0.059 0.251-0.053 0.128 0.133 0.187 0.219 0.069 0.048-0.069 0.043-0.139-0.043-0.357-0.059-0.149-0.096-0.325-0.075-0.395 0.037-0.155 0.341-0.507 0.405-0.464 0.027 0.016-0.021 0.112-0.112 0.213-0.16 0.187-0.219 0.459-0.107 0.528 0.032 0.016 0.053-0.005 0.053-0.048 0-0.048 0.085-0.181 0.192-0.293l0.187-0.213-0.117-0.133c-0.165-0.192-0.373-0.181-0.549 0.027z"></path>
<path d="M7.771 7.936c-0.101 0.112-0.112 0.213-0.043 0.325 0.043 0.064 0.064 0.069 0.133 0.005 0.080-0.064 0.080-0.075 0-0.165-0.139-0.149-0.032-0.24 0.117-0.096 0.069 0.064 0.128 0.133 0.128 0.155 0 0.016 0.123 0.16 0.267 0.32 0.149 0.16 0.267 0.309 0.267 0.331 0 0.096-0.144 0.032-0.272-0.128-0.096-0.112-0.171-0.155-0.229-0.133-0.117 0.048-0.107 0.096 0.048 0.267 0.224 0.24 0.56 0.149 0.56-0.149 0-0.171-0.341-0.528-0.459-0.485-0.059 0.021-0.080 0.011-0.059-0.043 0.043-0.112-0.112-0.299-0.251-0.299-0.069 0-0.16 0.043-0.208 0.096z"></path>
<path d="M24.032 7.915c0.027 0.064-0.032 0.165-0.197 0.331l-0.229 0.235h0.144c0.293 0 0.528-0.421 0.331-0.587-0.069-0.059-0.075-0.053-0.048 0.021z"></path>
<path d="M24.272 8.395c-0.043 0.053-0.043 0.085 0.016 0.133 0.053 0.048 0.085 0.043 0.139-0.021 0.069-0.085 0.213-0.112 0.213-0.037 0 0.080-0.779 0.811-0.869 0.811-0.128 0-0.112-0.053 0.080-0.251 0.128-0.133 0.155-0.192 0.107-0.24s-0.085-0.037-0.176 0.043c-0.192 0.171-0.224 0.283-0.128 0.427 0.144 0.224 0.331 0.171 0.736-0.208 0.197-0.181 0.357-0.373 0.357-0.427 0-0.123-0.187-0.304-0.315-0.304-0.053 0-0.128 0.032-0.16 0.075z"></path>
<path d="M7.029 8.635c-0.288 0.293-0.272 0.427 0.096 0.768 0.165 0.155 0.336 0.299 0.379 0.32 0.197 0.117 0.485-0.117 0.416-0.331-0.016-0.053-0.197-0.245-0.4-0.432-0.208-0.181-0.373-0.352-0.373-0.379 0-0.123 0.165-0.016 0.576 0.363 0.389 0.357 0.453 0.395 0.523 0.325s0.027-0.123-0.352-0.459c-0.261-0.235-0.48-0.384-0.549-0.384-0.064 0.005-0.208 0.096-0.315 0.208zM7.419 9.157c0.384 0.341 0.496 0.496 0.368 0.496-0.069 0-0.907-0.747-0.907-0.811 0-0.112 0.176-0.011 0.539 0.315z"></path>
<path d="M25.253 9.259c-0.069 0.053-0.171 0.069-0.293 0.053-0.181-0.027-0.181-0.027 0.053 0.080 0.187 0.085 0.267 0.096 0.357 0.053 0.139-0.064 0.155-0.128 0.053-0.208-0.043-0.037-0.096-0.032-0.171 0.021z"></path>
<path d="M24.368 9.296c-0.395 0.309-0.389 0.304-0.309 0.384 0.069 0.069 0.112 0.053 0.336-0.133 0.139-0.117 0.283-0.197 0.315-0.176s0 0.080-0.091 0.149c-0.128 0.101-0.133 0.123-0.064 0.181s0.107 0.059 0.213-0.016c0.245-0.16 0.192 0.005-0.069 0.213-0.229 0.187-0.251 0.224-0.192 0.309 0.064 0.085 0.085 0.080 0.288-0.101 0.261-0.235 0.272-0.357 0.059-0.608-0.085-0.101-0.144-0.203-0.128-0.229 0.043-0.069-0.261-0.048-0.357 0.027z"></path>
<path d="M6.347 9.355c-0.053 0.069-0.043 0.107 0.053 0.229 0.075 0.096 0.112 0.208 0.101 0.336-0.016 0.325 0 0.363 0.251 0.565 0.213 0.176 0.251 0.192 0.32 0.117 0.075-0.075 0.053-0.101-0.187-0.277-0.149-0.112-0.272-0.224-0.272-0.251 0-0.069 0.037-0.059 0.181 0.032 0.112 0.075 0.133 0.075 0.192 0 0.059-0.069 0.053-0.096-0.043-0.165-0.117-0.080-0.155-0.181-0.075-0.181 0.027 0 0.16 0.091 0.299 0.197 0.224 0.176 0.256 0.187 0.331 0.112s0.059-0.096-0.144-0.251c-0.128-0.091-0.277-0.165-0.336-0.165-0.064 0-0.192 0.091-0.288 0.197l-0.176 0.203 0.032-0.299c0.027-0.245 0.016-0.309-0.069-0.384-0.091-0.080-0.112-0.085-0.171-0.016z"></path>
<path d="M25.664 9.824c-0.037 0.037-0.064 0.128-0.064 0.208 0 0.117-0.064 0.192-0.331 0.384-0.224 0.16-0.352 0.224-0.389 0.187-0.053-0.048-0.027-0.080 0.261-0.283 0.096-0.075 0.085-0.24-0.016-0.24s-0.379 0.277-0.379 0.379c0 0.128 0.181 0.315 0.315 0.315 0.053 0 0.208-0.085 0.347-0.187 0.192-0.149 0.245-0.224 0.245-0.347 0-0.112 0.043-0.187 0.133-0.245 0.107-0.069 0.123-0.101 0.075-0.16-0.075-0.091-0.117-0.091-0.197-0.011z"></path>
<path d="M5.627 10.4c-0.069 0.112 0.043 0.171 0.261 0.139 0.192-0.027 0.261-0.005 0.56 0.187 0.24 0.155 0.32 0.235 0.277 0.277-0.037 0.037-0.117 0.011-0.267-0.085-0.208-0.139-0.219-0.139-0.267-0.043-0.059 0.107 0.032 0.197 0.283 0.288 0.155 0.059 0.352-0.096 0.352-0.283 0-0.123-0.048-0.187-0.245-0.325-0.213-0.144-0.272-0.16-0.475-0.133-0.139 0.021-0.245 0.016-0.267-0.021-0.043-0.069-0.171-0.069-0.213 0z"></path>
<path d="M25.707 10.587c-0.464 0.277-0.549 0.373-0.507 0.56 0.091 0.368 0.459 0.485 0.715 0.224 0.085-0.080 0.181-0.139 0.213-0.128 0.096 0.032 0.219-0.096 0.219-0.229 0-0.069 0.037-0.139 0.080-0.155 0.069-0.027 0.075-0.053 0.027-0.139-0.048-0.096-0.075-0.101-0.139-0.048-0.048 0.037-0.069 0.112-0.059 0.16 0.032 0.123-0.091 0.229-0.229 0.192-0.069-0.016-0.107 0-0.107 0.043s-0.101 0.133-0.224 0.208c-0.165 0.101-0.245 0.117-0.32 0.080-0.208-0.112-0.112-0.245 0.416-0.555 0.464-0.277 0.587-0.411 0.389-0.437-0.043-0.005-0.256 0.096-0.475 0.224z"></path>
<path d="M5.349 10.859c-0.021 0.053-0.011 0.101 0.016 0.112 0.16 0.059 0.192 0.112 0.133 0.224-0.064 0.117 0 0.325 0.096 0.325 0.091 0 0.117-0.181 0.032-0.224-0.096-0.059-0.107-0.149-0.011-0.149 0.091 0 0.784 0.373 0.784 0.421 0 0.101-0.085 0.101-0.277-0.005-0.181-0.101-0.213-0.107-0.256-0.043-0.075 0.117-0.069 0.139 0.080 0.203 0.309 0.144 0.507 0.048 0.507-0.235 0-0.165-0.027-0.192-0.437-0.416-0.592-0.32-0.619-0.331-0.667-0.213z"></path>
<path d="M26.075 11.552c-0.277 0.128-0.507 0.251-0.512 0.272-0.011 0.027 0.005 0.075 0.032 0.112 0.032 0.059 0.16 0.011 0.581-0.197 0.576-0.288 0.651-0.315 0.651-0.203 0 0.037-0.251 0.192-0.56 0.347-0.416 0.208-0.549 0.293-0.528 0.357 0.048 0.117 0.080 0.107 0.608-0.16 0.523-0.261 0.613-0.363 0.517-0.56-0.117-0.229-0.251-0.224-0.789 0.032z"></path>
<path d="M4.891 11.765c-0.021 0.021-0.037 0.069-0.037 0.112 0 0.085 0.272 0.096 0.363 0.005 0.043-0.043 0.16-0.016 0.464 0.117 0.219 0.096 0.4 0.192 0.4 0.213 0 0.091-0.080 0.091-0.299 0-0.224-0.101-0.235-0.101-0.283-0.005-0.043 0.080-0.027 0.107 0.080 0.16 0.181 0.080 0.421 0.075 0.496-0.016 0.213-0.261-0.187-0.651-0.608-0.592-0.336 0.043-0.368 0.043-0.459 0.005-0.043-0.021-0.096-0.016-0.117 0z"></path>
<path d="M26.976 12.165c-0.053 0.027-0.096 0.096-0.096 0.149 0 0.128-0.069 0.176-0.469 0.325-0.229 0.085-0.352 0.107-0.389 0.069-0.064-0.064-0.037-0.085 0.235-0.171 0.187-0.064 0.256-0.176 0.144-0.245-0.027-0.016-0.133 0.005-0.235 0.048-0.235 0.096-0.304 0.304-0.165 0.459 0.123 0.133 0.272 0.133 0.576 0.005 0.171-0.075 0.251-0.144 0.293-0.267 0.037-0.107 0.107-0.176 0.197-0.197 0.085-0.021 0.133-0.064 0.123-0.117-0.021-0.107-0.101-0.128-0.213-0.059z"></path>
<path d="M5.264 12.459c-0.096 0.096-0.016 0.176 0.229 0.235 0.149 0.037 0.283 0.085 0.299 0.112 0.085 0.139-0.091 0.128-0.619-0.048-0.32-0.107-0.597-0.176-0.619-0.16-0.091 0.096 0.064 0.197 0.533 0.357 0.485 0.171 0.517 0.171 0.645 0.091 0.176-0.117 0.181-0.373 0.016-0.48-0.149-0.091-0.437-0.155-0.485-0.107z"></path>
<path d="M20.736 9.797c-0.203 0.011-0.363 0.037-0.363 0.059s0.032 0.144 0.075 0.277c0.037 0.133 0.091 0.395 0.112 0.581l0.037 0.341-0.389-0.032c-0.219-0.021-0.491-0.069-0.608-0.112s-0.235-0.080-0.267-0.085c-0.032 0-0.053 0.203-0.053 0.501 0 0.331 0.016 0.485 0.053 0.459 0.069-0.059 0.827-0.213 1.040-0.213 0.144 0 0.16 0.016 0.16 0.155 0 0.144-0.107 0.709-0.192 0.997-0.027 0.107-0.011 0.112 0.459 0.117 0.437 0 0.485-0.005 0.448-0.085-0.064-0.165-0.176-0.672-0.192-0.917l-0.016-0.24 0.347 0.005c0.197 0.005 0.485 0.059 0.667 0.123 0.171 0.064 0.315 0.112 0.32 0.112 0 0-0.005-0.224-0.016-0.496l-0.016-0.496-0.384 0.091c-0.213 0.048-0.501 0.101-0.645 0.117l-0.261 0.027 0.037-0.341c0.021-0.187 0.080-0.485 0.133-0.661l0.101-0.32-0.117 0.011c-0.059 0.005-0.272 0.016-0.469 0.027z"></path>
<path d="M10.853 9.947c0.064 0.213 0.187 0.891 0.187 1.019 0 0.117-0.021 0.128-0.251 0.128-0.219 0-0.507-0.064-0.933-0.197-0.085-0.027-0.096 0.021-0.096 0.459 0 0.267 0.005 0.485 0.016 0.485 0.005 0 0.123-0.032 0.256-0.075s0.405-0.091 0.597-0.112l0.357-0.037v0.229c0 0.128-0.048 0.421-0.101 0.645l-0.096 0.416h0.469c0.261 0 0.475-0.011 0.475-0.016 0-0.011-0.048-0.208-0.107-0.437s-0.107-0.512-0.107-0.629v-0.213l0.341 0.032c0.187 0.016 0.48 0.080 0.651 0.144 0.171 0.059 0.309 0.107 0.315 0.107 0 0 0-0.229 0-0.507 0-0.432-0.011-0.501-0.080-0.475-0.16 0.059-0.725 0.176-0.96 0.192l-0.24 0.016 0.016-0.293c0.016-0.251 0.107-0.677 0.197-0.917 0.021-0.053-0.085-0.069-0.453-0.069-0.459 0-0.485 0.005-0.453 0.107z"></path>
<path d="M9.973 13.872c-0.368 0.064-0.971 0.347-1.264 0.603-0.133 0.117-0.299 0.341-0.4 0.555-0.165 0.336-0.176 0.384-0.176 0.944 0 0.533 0.011 0.613 0.149 0.891 0.171 0.352 0.603 0.773 0.971 0.944 0.469 0.219 0.869 0.293 1.547 0.288 0.747-0.005 1.248-0.117 1.835-0.411l0.379-0.192v-1.653h-2.293v0.693h1.227v0.539l-0.288 0.128c-0.757 0.336-1.552 0.283-2.027-0.139-0.288-0.251-0.416-0.539-0.448-0.992-0.037-0.544 0.059-0.837 0.357-1.136 0.357-0.357 0.928-0.496 1.525-0.373 0.277 0.053 0.357 0.101 0.592 0.341l0.267 0.277 0.48-0.075c0.261-0.043 0.48-0.080 0.491-0.091 0.043-0.043-0.213-0.448-0.4-0.624-0.496-0.48-1.499-0.683-2.523-0.517z"></path>
<path d="M19.744 15.984l0.016 2.123h1.227l0.016-0.896 0.011-0.891h2.613v-0.693h-2.613v-1.067h2.987v-0.693h-4.267l0.011 2.117z"></path>
<path d="M14.080 16.053v2.133h1.227v-1.813h2.613v-0.693l-1.291-0.011-1.296-0.016-0.016-0.523-0.016-0.517h3.045v-0.693h-4.267v2.133z"></path>
<path d="M20.453 19.131c0.069 0.181 0.187 0.789 0.187 0.987v0.197l-0.304-0.032c-0.261-0.021-0.608-0.107-0.907-0.219-0.053-0.016-0.069 0.101-0.069 0.491 0 0.48 0.005 0.512 0.096 0.464s0.912-0.219 1.056-0.219c0.107 0 0.096 0.416-0.021 0.891l-0.096 0.384 0.971 0.032-0.096-0.304c-0.048-0.171-0.112-0.469-0.128-0.667l-0.037-0.352 0.288 0.032c0.267 0.032 0.768 0.149 0.955 0.219 0.069 0.027 0.080-0.043 0.080-0.469 0-0.277-0.021-0.491-0.043-0.475-0.075 0.048-0.629 0.165-0.96 0.203l-0.309 0.037 0.032-0.283c0.032-0.261 0.139-0.72 0.219-0.928 0.027-0.069-0.037-0.080-0.459-0.080-0.448 0-0.491 0.011-0.453 0.091z"></path>
<path d="M10.907 19.28c0.064 0.213 0.187 0.891 0.187 1.019 0 0.117-0.021 0.128-0.251 0.128-0.219 0-0.512-0.064-0.933-0.197-0.080-0.021-0.091 0.032-0.107 0.475l-0.016 0.496 0.267-0.085c0.149-0.053 0.427-0.107 0.629-0.128l0.357-0.037v0.213c0 0.197-0.117 0.789-0.192 0.992-0.027 0.075 0.037 0.085 0.459 0.085 0.448 0 0.491-0.011 0.453-0.096-0.064-0.176-0.187-0.821-0.187-1.008v-0.192l0.341 0.032c0.187 0.016 0.48 0.080 0.651 0.144 0.171 0.059 0.309 0.107 0.315 0.107 0 0 0-0.229 0-0.507 0-0.432-0.011-0.501-0.080-0.475-0.133 0.048-0.704 0.171-0.976 0.203l-0.256 0.032 0.032-0.309c0.032-0.267 0.133-0.725 0.213-0.928 0.021-0.053-0.085-0.069-0.453-0.069-0.459 0-0.485 0.005-0.453 0.107z"></path>
<path d="M25.904 19.317c-0.112 0.091-0.203 0.336-0.16 0.448 0.021 0.053 0 0.107-0.053 0.139-0.053 0.027-0.091 0.069-0.091 0.096 0 0.043 0.923 0.373 1.056 0.373 0.032 0 0.064-0.032 0.064-0.075 0-0.048-0.133-0.123-0.341-0.192-0.421-0.139-0.549-0.267-0.48-0.469 0.064-0.192 0.208-0.203 0.635-0.064 0.325 0.107 0.453 0.107 0.453 0 0-0.048-0.773-0.32-0.912-0.32-0.043 0-0.123 0.032-0.171 0.064z"></path>
<path d="M5.787 19.541c-0.352 0.155-0.507 0.491-0.432 0.912 0.037 0.203 0.368 0.613 0.485 0.613 0.037 0 0.181-0.048 0.315-0.101l0.24-0.107-0.112-0.283c-0.139-0.347-0.128-0.331-0.224-0.293-0.075 0.027-0.075 0.053 0 0.235 0.080 0.181 0.080 0.203-0.011 0.267-0.144 0.101-0.213 0.085-0.357-0.091-0.171-0.203-0.224-0.443-0.144-0.645 0.149-0.363 0.789-0.512 1.051-0.245 0.176 0.176 0.224 0.533 0.096 0.677-0.075 0.085-0.085 0.123-0.037 0.171 0.053 0.053 0.091 0.037 0.187-0.053 0.24-0.245 0.075-0.864-0.283-1.051-0.192-0.096-0.56-0.101-0.773-0.005z"></path>
<path d="M25.621 20.331c-0.176 0.043-0.315 0.208-0.368 0.432-0.053 0.208 0.096 0.437 0.373 0.571 0.208 0.101 0.261 0.107 0.432 0.053 0.192-0.064 0.395-0.315 0.395-0.491 0-0.363-0.453-0.667-0.832-0.565zM26 20.565c0.453 0.213 0.277 0.784-0.197 0.629-0.352-0.112-0.48-0.389-0.272-0.619 0.107-0.117 0.24-0.123 0.469-0.011z"></path>
<path d="M6.32 21.040c-0.384 0.197-0.475 0.603-0.192 0.885 0.176 0.171 0.512 0.229 0.453 0.075-0.021-0.043-0.075-0.080-0.123-0.080-0.155 0-0.325-0.16-0.325-0.299 0-0.155 0.085-0.341 0.16-0.341 0.027 0 0.149 0.155 0.272 0.347 0.192 0.304 0.229 0.341 0.32 0.288 0.155-0.080 0.283-0.384 0.24-0.555-0.091-0.352-0.453-0.496-0.805-0.32zM6.864 21.248c0.128 0.112 0.139 0.144 0.096 0.277-0.080 0.224-0.16 0.208-0.315-0.059-0.208-0.347-0.080-0.475 0.219-0.219z"></path>
<path d="M24.603 21.045c-0.032 0.091 0.080 0.197 0.155 0.149 0.069-0.048 0.048-0.171-0.037-0.203-0.048-0.016-0.096 0.005-0.117 0.053z"></path>
<path d="M24.992 21.211c-0.085 0.091 0.005 0.181 0.421 0.437 0.405 0.251 0.56 0.299 0.56 0.165 0-0.021-0.080-0.091-0.171-0.144-0.096-0.059-0.309-0.192-0.475-0.299s-0.315-0.176-0.336-0.16z"></path>
<path d="M24.373 21.541c0 0.064 0.048 0.139 0.107 0.176s0.107 0.112 0.107 0.165c0 0.069 0.027 0.091 0.101 0.064 0.069-0.021 0.219 0.043 0.443 0.187 0.384 0.245 0.485 0.261 0.597 0.096 0.107-0.149 0.032-0.235-0.117-0.144-0.091 0.059-0.149 0.043-0.427-0.139-0.267-0.171-0.315-0.229-0.272-0.304 0.064-0.123-0.053-0.197-0.123-0.075-0.048 0.080-0.064 0.080-0.235-0.021l-0.181-0.117v0.112z"></path>
<path d="M7.013 21.984c-0.272 0.149-0.4 0.325-0.4 0.549 0 0.171 0.032 0.251 0.149 0.357 0.197 0.187 0.341 0.224 0.555 0.133 0.464-0.197 0.592-0.661 0.267-0.949-0.181-0.165-0.384-0.197-0.571-0.091zM7.509 22.197c0.032 0.032 0.064 0.133 0.064 0.229 0 0.213-0.251 0.453-0.464 0.453-0.315 0-0.448-0.363-0.213-0.571 0.251-0.229 0.427-0.261 0.613-0.112z"></path>
<path d="M24.309 22.24c-0.171 0.133-0.277 0.389-0.235 0.565 0.048 0.192 0.165 0.128 0.165-0.096s0.101-0.363 0.272-0.363c0.187 0 0.203 0.091 0.053 0.347-0.165 0.272-0.176 0.459-0.043 0.576 0.224 0.203 0.56 0.027 0.629-0.32 0.021-0.101 0.059-0.16 0.101-0.144 0.032 0.016 0.096-0.011 0.133-0.059 0.043-0.048 0.043-0.080 0.011-0.080s-0.213-0.123-0.405-0.267c-0.384-0.293-0.485-0.32-0.683-0.16zM24.992 22.693c0.101 0.16 0.059 0.32-0.117 0.437-0.123 0.080-0.139 0.080-0.224-0.005-0.080-0.080-0.080-0.101 0.043-0.325 0.075-0.133 0.149-0.24 0.171-0.24s0.080 0.059 0.128 0.133z"></path>
<path d="M7.621 23.072c-0.219 0.197-0.4 0.363-0.411 0.368-0.005 0.005 0.021 0.037 0.059 0.069 0.053 0.048 0.144 0 0.384-0.203 0.341-0.288 0.459-0.325 0.571-0.165 0.053 0.075 0.096 0.091 0.149 0.059 0.117-0.075 0-0.235-0.192-0.267-0.107-0.021-0.133-0.043-0.085-0.069 0.064-0.043 0.043-0.144-0.037-0.144-0.021 0-0.219 0.16-0.437 0.352z"></path>
<path d="M23.824 22.832c-0.048 0.032-0.091 0.112-0.091 0.176 0 0.085-0.027 0.123-0.085 0.117-0.181-0.011-0.117 0.117 0.24 0.469 0.267 0.261 0.395 0.357 0.459 0.331 0.075-0.027 0.037-0.091-0.208-0.357-0.315-0.341-0.347-0.416-0.219-0.549 0.144-0.144 0.075-0.277-0.096-0.187z"></path>
<path d="M8.139 23.419c-0.171 0.133-0.299 0.368-0.299 0.544 0 0.165 0.229 0.411 0.379 0.411 0.112 0 0.117 0.005 0.021 0.107-0.112 0.128-0.357 0.139-0.453 0.027-0.037-0.043-0.080-0.155-0.101-0.245-0.037-0.197-0.133-0.208-0.155-0.021-0.037 0.299 0.368 0.619 0.645 0.512 0.144-0.059 0.917-0.885 0.917-0.981 0-0.037-0.043-0.059-0.091-0.059-0.059 0.005-0.096-0.027-0.096-0.080 0-0.288-0.501-0.427-0.768-0.213zM8.704 23.557c0.117 0.107 0.123 0.187 0.016 0.389-0.107 0.208-0.363 0.341-0.507 0.267-0.181-0.096-0.229-0.245-0.133-0.421 0.155-0.304 0.432-0.405 0.624-0.235z"></path>
<path d="M22.965 23.675c-0.48 0.501 0.304 1.291 0.816 0.816 0.176-0.155 0.251-0.368 0.171-0.485-0.069-0.107-0.165-0.021-0.165 0.149 0 0.277-0.373 0.443-0.539 0.24-0.059-0.075-0.053-0.101 0.037-0.176 0.059-0.048 0.203-0.165 0.315-0.261l0.213-0.176-0.149-0.133c-0.213-0.187-0.507-0.176-0.699 0.027zM23.499 23.744c0.027 0.037-0.053 0.139-0.192 0.261-0.24 0.208-0.32 0.203-0.32-0.027s0.4-0.416 0.512-0.235z"></path>
<path d="M9.547 23.653c-0.107 0.128 0.021 0.24 0.139 0.128 0.069-0.075 0.069-0.091 0.005-0.144-0.059-0.053-0.091-0.048-0.144 0.016z"></path>
<path d="M22.16 23.781c-0.016 0.032 0.032 0.149 0.107 0.256l0.133 0.203-0.139 0.037c-0.341 0.091-0.464 0.389-0.293 0.725 0.128 0.256 0.315 0.384 0.555 0.384 0.187 0 0.411-0.176 0.411-0.325 0-0.053 0.011-0.059 0.043-0.011 0.027 0.037 0.069 0.048 0.117 0.016 0.059-0.037-0.016-0.176-0.357-0.672-0.427-0.629-0.512-0.715-0.576-0.613zM22.624 24.571c0.192 0.208 0.229 0.368 0.128 0.523-0.096 0.144-0.283 0.176-0.416 0.064-0.229-0.187-0.331-0.528-0.192-0.667 0.112-0.112 0.336-0.075 0.48 0.080z"></path>
<path d="M8.971 24.373c-0.299 0.373-0.368 0.533-0.229 0.533 0.027 0 0.203-0.197 0.4-0.437 0.256-0.315 0.336-0.448 0.288-0.48-0.037-0.021-0.080-0.043-0.096-0.037-0.016 0-0.181 0.187-0.363 0.421z"></path>
<path d="M9.552 24.368c-0.123 0.080-0.011 0.176 0.16 0.139 0.117-0.027 0.181-0.005 0.288 0.101 0.144 0.144 0.155 0.181 0.085 0.293-0.043 0.064-0.107 0.053-0.379-0.069l-0.331-0.149-0.144 0.101c-0.197 0.149-0.203 0.304-0.011 0.496 0.107 0.112 0.208 0.16 0.325 0.16 0.128 0 0.16 0.021 0.149 0.091-0.032 0.192 0.117 0.085 0.352-0.251 0.272-0.389 0.304-0.571 0.128-0.731-0.24-0.213-0.464-0.283-0.624-0.181zM9.733 24.997c0.224 0.107 0.229 0.144 0.053 0.261-0.219 0.144-0.576-0.043-0.491-0.267 0.043-0.112 0.197-0.107 0.437 0.005z"></path>
<path d="M10.32 25.28c-0.293 0.587-0.288 0.555-0.176 0.576 0.064 0.011 0.133-0.064 0.235-0.267 0.075-0.155 0.176-0.325 0.224-0.379 0.107-0.123 0.293-0.117 0.411 0.016 0.101 0.107 0.096 0.117-0.096 0.512-0.107 0.219-0.197 0.405-0.197 0.416s0.037 0.037 0.085 0.053c0.059 0.021 0.133-0.080 0.299-0.421 0.208-0.437 0.213-0.459 0.128-0.587-0.107-0.16-0.32-0.256-0.475-0.208-0.080 0.027-0.101 0.016-0.075-0.048 0.016-0.048-0.005-0.096-0.048-0.112-0.053-0.021-0.144 0.107-0.315 0.448z"></path>
<path d="M19.979 25.040c-0.235 0.101-0.437 0.197-0.448 0.213-0.043 0.043 0.544 1.371 0.619 1.397 0.128 0.053 0.139-0.037 0.021-0.32-0.064-0.155-0.117-0.304-0.117-0.336s0.139-0.112 0.309-0.181c0.368-0.149 0.341-0.128 0.304-0.229-0.032-0.069-0.075-0.064-0.325 0.048-0.16 0.069-0.315 0.128-0.341 0.128-0.053 0-0.213-0.277-0.213-0.373 0-0.032 0.171-0.133 0.373-0.224 0.336-0.149 0.437-0.245 0.288-0.293-0.027-0.005-0.24 0.069-0.469 0.171z"></path>
<path d="M21.077 24.987c-0.085 0.075-0.176 0.192-0.192 0.267-0.043 0.171 0.107 0.533 0.277 0.667 0.315 0.251 0.859 0.005 0.864-0.395 0-0.117-0.021-0.144-0.085-0.117-0.048 0.016-0.096 0.032-0.107 0.032s-0.021 0.059-0.021 0.128c0 0.139-0.176 0.299-0.325 0.299-0.048 0-0.144-0.043-0.213-0.101l-0.123-0.096 0.133-0.080c0.069-0.043 0.24-0.144 0.379-0.224 0.245-0.139 0.251-0.149 0.176-0.267-0.176-0.267-0.523-0.315-0.763-0.112zM21.579 25.088c0.117 0.091 0.123 0.080-0.197 0.267-0.304 0.171-0.315 0.171-0.315-0.005 0-0.283 0.283-0.427 0.512-0.261z"></path>
<path d="M11.995 25.872c-0.123 0.395-0.229 0.731-0.24 0.747-0.011 0.021 0.027 0.048 0.085 0.064 0.085 0.021 0.117-0.027 0.213-0.309l0.112-0.336 0.32 0.101c0.389 0.123 0.421 0.123 0.421 0.027 0-0.048-0.139-0.123-0.352-0.192-0.283-0.096-0.341-0.133-0.315-0.208 0.021-0.048 0.059-0.149 0.091-0.224l0.048-0.139 0.411 0.123c0.224 0.069 0.416 0.128 0.427 0.128 0.005 0 0.011-0.043 0.011-0.096 0-0.091-0.149-0.149-0.917-0.368-0.075-0.021-0.128 0.096-0.315 0.683z"></path>
<path d="M18.613 25.52c0 0.021 0.085 0.368 0.197 0.779 0.176 0.672 0.267 0.853 0.352 0.699 0.011-0.021-0.064-0.363-0.171-0.757-0.144-0.544-0.213-0.725-0.288-0.736-0.048-0.011-0.091-0.005-0.091 0.016z"></path>
<path d="M18.24 25.664c0 0.037 0.064 0.389 0.144 0.773 0.123 0.597 0.16 0.709 0.24 0.709 0.053 0 0.096-0.005 0.096-0.016s-0.069-0.347-0.16-0.747c-0.085-0.405-0.16-0.747-0.16-0.757 0-0.016-0.037-0.027-0.080-0.027s-0.080 0.032-0.080 0.064z"></path>
<path d="M16 26.064c0 0.651 0.075 1.403 0.139 1.403 0.037 0 0.075-0.027 0.085-0.059 0.016-0.048 0.053-0.048 0.144 0 0.299 0.165 0.645-0.107 0.645-0.512 0-0.464-0.315-0.747-0.645-0.581l-0.155 0.075-0.032-0.261c-0.043-0.32-0.181-0.368-0.181-0.064zM16.693 26.496c0.165 0.133 0.181 0.533 0.032 0.699-0.224 0.245-0.512 0.053-0.512-0.341 0-0.171 0.032-0.272 0.107-0.347 0.133-0.133 0.219-0.133 0.373-0.011z"></path>
<path d="M15.557 25.957c-0.021 0.016-0.037 0.091-0.037 0.16s-0.037 0.139-0.080 0.155c-0.107 0.043-0.101 0.181 0.005 0.181 0.075 0 0.080 0.053 0.048 0.368-0.043 0.448 0.016 0.592 0.24 0.592 0.107 0 0.16-0.027 0.16-0.080 0-0.043-0.048-0.080-0.107-0.080-0.096 0-0.107-0.037-0.107-0.4s0.011-0.4 0.107-0.4c0.059 0 0.107-0.037 0.107-0.080s-0.048-0.080-0.107-0.080c-0.085 0-0.107-0.037-0.107-0.187 0-0.176-0.043-0.229-0.123-0.149z"></path>
<path d="M13.205 26.192c-0.112 0.128-0.139 0.219-0.139 0.448 0 0.251 0.016 0.299 0.165 0.421 0.395 0.331 0.901 0.016 0.901-0.555 0-0.261-0.251-0.48-0.549-0.48-0.203 0-0.261 0.027-0.379 0.165zM13.856 26.283c0.181 0.229-0.016 0.757-0.288 0.757-0.171 0-0.341-0.181-0.341-0.363 0.005-0.416 0.405-0.667 0.629-0.395z"></path>
<path d="M17.408 26.208c-0.149 0.069-0.235 0.176-0.235 0.304 0 0.096 0.149 0.043 0.235-0.085 0.139-0.208 0.549-0.165 0.501 0.053-0.011 0.064-0.117 0.128-0.299 0.187-0.16 0.053-0.309 0.117-0.341 0.149-0.096 0.096-0.064 0.347 0.064 0.448 0.149 0.123 0.304 0.123 0.507 0 0.123-0.075 0.181-0.085 0.251-0.043 0.048 0.032 0.107 0.043 0.123 0.027 0.016-0.021-0.005-0.245-0.048-0.501-0.080-0.517-0.149-0.613-0.427-0.613-0.091 0.005-0.24 0.037-0.331 0.075zM17.973 26.853c0 0.288-0.411 0.469-0.539 0.235-0.069-0.139-0.016-0.208 0.235-0.299 0.256-0.091 0.304-0.080 0.304 0.064z"></path>
<path d="M14.523 26.24c-0.245 0.101-0.395 0.533-0.288 0.811 0.149 0.4 0.789 0.437 0.96 0.059 0.032-0.069 0.059-0.24 0.059-0.384 0-0.197-0.027-0.277-0.128-0.373-0.139-0.133-0.427-0.187-0.603-0.112zM14.981 26.485c0.133 0.165 0.144 0.341 0.032 0.555-0.176 0.336-0.571 0.208-0.603-0.197-0.032-0.416 0.341-0.651 0.571-0.357z"></path>
</svg>
