<!-- Generated by IcoMoon.io -->
<svg version="1.1" xmlns="http://www.w3.org/2000/svg" width="36" height="32" viewBox="0 0 36 32">
<title>index</title>
<path d="M8.257 1.721c-0.302 0.785-0.8 2.219-1.087 3.215-0.302 0.981-0.589 1.826-0.649 1.872s-0.408 0.211-0.785 0.362c-0.981 0.423-2.128 1.162-2.642 1.751l-0.453 0.513 0.453-0.392c0.785-0.664 0.981-0.785 1.328-0.815 0.181-0.030 0.694-0.151 1.132-0.287l0.8-0.226-0.106 0.483c-0.211 0.996-0.332 1.162-0.815 1.162-0.362 0-0.498 0.091-0.604 0.392-0.226 0.589-0.166 0.785 0.091 0.302l0.242-0.423 1.751 0.106c2.792 0.166 3.185 0.272 3.834 1.011 0.302 0.347 0.725 0.951 0.936 1.343l0.392 0.694-1.932 0.257c-2.943 0.392-2.611 0.030-2.521 2.762l0.091 2.34-0.498-0.347c-0.272-0.196-1.026-0.875-1.66-1.525l-1.177-1.162v-0.83c0-0.468-0.060-0.845-0.151-0.845s-0.151 0.438-0.151 1.011c0.015 0.891 0.060 1.087 0.423 1.525l0.408 0.498-0.091 4.8-0.604 0.196c-0.574 0.166-0.604 0.196-0.347 0.392 0.166 0.106 0.498 0.302 0.74 0.423l0.453 0.226-0.377-0.302c-0.302-0.226-0.332-0.317-0.151-0.377 0.121-0.045 1.192-0.423 2.37-0.845l2.159-0.785 0.951 0.392c0.513 0.211 1.268 0.468 1.66 0.574 0.392 0.091 0.709 0.226 0.709 0.287 0 0.121-2.204 0.74-2.611 0.74-0.136 0-0.257 0.060-0.257 0.136 0 0.166 2.083 0.362 2.657 0.241l0.438-0.091-0.408 0.226c-1.132 0.664-3.789 0.906-5.374 0.483-0.438-0.106-0.785-0.181-0.785-0.151 0 0.015 0.528 0.468 1.177 1.011 1.857 1.555 4.257 3.034 7.502 4.634 2.883 1.419 6.34 2.838 6.506 2.672 0.045-0.045-0.151-1.57-0.453-3.381-0.83-5.072-1.706-12.513-1.509-12.725 0.045-0.045 3.743-0.091 8.211-0.121l8.121-0.060-0.377-0.921c-1.208-2.974-4.075-7.789-6.4-10.747l-0.709-0.921-1.721-0.332c-3.94-0.755-8.468-1.253-16.287-1.751l-1.298-0.091-0.543 1.419zM11.502 6.943c0.543 0.166 1.374 0.558 1.872 0.875 0.875 0.574 2.309 2.008 2.657 2.657 0.151 0.272 0.106 0.257-0.347-0.106-0.287-0.226-0.951-0.725-1.494-1.087-0.891-0.619-1.041-0.679-1.66-0.604l-0.679 0.075-0.951-1.057c-1.087-1.192-1.026-1.268 0.604-0.755zM21.283 12.060c0.241 0.468 0.196 1.917-0.091 2.189-0.468 0.483-1.328 0.091-1.238-0.559 0.075-0.468 0.423-0.498 0.423-0.045 0 0.287 0.075 0.392 0.302 0.392 0.272 0 0.302-0.106 0.302-0.891 0-0.951-0.211-1.298-0.528-0.875-0.241 0.332-0.377 0.317-0.377-0.015 0-0.377 0.136-0.483 0.619-0.483 0.272 0 0.483 0.106 0.589 0.287zM22.868 11.925c0.060 0.091-0.106 0.151-0.362 0.151-0.362 0-0.468 0.060-0.468 0.302 0 0.196 0.106 0.302 0.272 0.302 0.483 0 0.815 0.513 0.755 1.162-0.060 0.77-0.332 0.74-0.392-0.075-0.045-0.498-0.106-0.634-0.332-0.634s-0.302 0.136-0.332 0.604c-0.075 0.981-0.347 0.77-0.392-0.302-0.060-1.434 0.015-1.66 0.649-1.66 0.272 0 0.558 0.060 0.604 0.151zM25.026 13.162c0.030 0.815-0.015 1.328-0.106 1.328s-0.166-0.513-0.196-1.132c-0.045-1.162-0.317-1.57-0.392-0.604-0.060 0.679-0.332 0.694-0.332 0.015 0-0.287-0.060-0.559-0.151-0.619-0.075-0.045-0.151 0.392-0.181 1.087-0.030 0.649-0.106 1.177-0.196 1.177-0.211 0-0.272-2.174-0.075-2.43 0.121-0.121 0.438-0.196 0.875-0.166l0.709 0.030 0.045 1.313zM26.536 11.955c0.075 0.106 0.151 0.649 0.166 1.208 0.015 0.891-0.015 1.041-0.302 1.192-0.513 0.272-1.041-0.045-1.041-0.619 0-0.528 0.257-0.619 0.332-0.121 0.030 0.196 0.166 0.362 0.317 0.392 0.196 0.045 0.257-0.060 0.257-0.468 0-0.302-0.075-0.559-0.166-0.589-0.121-0.045-0.121-0.151 0.030-0.377 0.241-0.408 0.030-0.679-0.226-0.302-0.106 0.136-0.241 0.257-0.302 0.257-0.121 0-0.121-0.528 0.015-0.649 0.166-0.181 0.755-0.121 0.921 0.075zM28.226 11.909c0 0.075-0.181 0.166-0.408 0.196-0.543 0.060-0.679 0.574-0.166 0.574s0.725 0.272 0.725 0.936c0 0.694-0.423 1.011-0.996 0.74-0.332-0.151-0.362-0.242-0.362-1.268 0-0.619 0.045-1.162 0.106-1.208 0.151-0.166 1.102-0.121 1.102 0.030zM29.857 11.955c0.241 0.211 0.241 2.113 0 2.355-0.106 0.106-0.317 0.181-0.498 0.181s-0.392-0.075-0.498-0.181c-0.211-0.211-0.241-1.026-0.030-1.026 0.091 0 0.151 0.166 0.151 0.377 0 0.272 0.075 0.377 0.302 0.377 0.272 0 0.302-0.106 0.302-0.996 0-0.619-0.060-0.951-0.151-0.891-0.075 0.045-0.151 0.196-0.151 0.317s-0.060 0.211-0.151 0.211c-0.075 0-0.151-0.106-0.151-0.242s-0.136-0.272-0.302-0.317c-0.166-0.045-0.302-0.136-0.302-0.211 0-0.166 1.253-0.136 1.479 0.045zM31.517 11.955c0.272 0.272 0.241 1.328-0.030 1.328-0.151 0-0.241-0.196-0.272-0.574s-0.121-0.559-0.272-0.559c-0.166 0-0.241 0.226-0.272 0.936-0.045 0.936-0.030 0.951 0.347 0.951 0.241 0 0.377 0.091 0.377 0.226 0 0.257-0.543 0.302-0.891 0.091-0.272-0.181-0.392-1.615-0.181-2.174 0.121-0.317 0.257-0.408 0.589-0.408 0.226 0 0.498 0.075 0.604 0.181zM33.177 13.162c0.030 0.815-0.015 1.328-0.106 1.328s-0.166-0.528-0.196-1.177c-0.030-0.906-0.091-1.162-0.272-1.162s-0.242 0.257-0.272 1.177c-0.030 0.845-0.091 1.162-0.226 1.117-0.257-0.075-0.332-2.174-0.091-2.46 0.106-0.136 0.377-0.211 0.649-0.181l0.468 0.045 0.045 1.313zM17.147 13.826c0.317 1.268-0.287 4.423-1.087 5.6l-0.287 0.423-0.091-1.585c-0.060-0.875-0.106-1.645-0.121-1.706 0-0.075-0.347 0.106-0.755 0.408s-0.8 0.543-0.875 0.543c-0.091 0-0.196-0.589-0.242-1.328-0.060-0.725-0.136-1.464-0.196-1.645-0.060-0.242 0-0.362 0.242-0.498 0.423-0.226 2.038-0.574 2.747-0.589 0.498-0.015 0.589 0.045 0.664 0.377z"></path>
<path d="M27.381 13.358c-0.136 0.317 0.045 0.679 0.317 0.679 0.151 0 0.226-0.151 0.226-0.453 0-0.483-0.392-0.649-0.543-0.226z"></path>
<path d="M0.83 12.242c-0.347 0.845-0.483 3.381-0.241 4.528 0.181 0.86 1.162 3.109 1.313 2.974 0.030-0.045 0-0.257-0.091-0.483-0.075-0.226-0.211-0.966-0.287-1.645-0.151-1.238-0.151-1.238 0.377-2.264l0.513-1.026-0.649-1.374-0.664-1.374-0.272 0.664z"></path>
<path d="M20.589 16.196c-0.045 0.121-0.060 0.679-0.030 1.253l0.045 1.041 0.498 0.045c0.272 0.030 0.483-0.015 0.483-0.106s-0.166-0.166-0.377-0.166c-0.362 0-0.377-0.030-0.377-0.981 0-0.875 0.030-0.981 0.302-0.981 0.241 0 0.302 0.106 0.302 0.528 0 0.287 0.075 0.528 0.166 0.528s0.136-0.257 0.106-0.649c-0.045-0.589-0.075-0.634-0.543-0.679-0.317-0.030-0.513 0.030-0.574 0.166z"></path>
<path d="M22.294 16.106c-0.166 0.166-0.121 2.46 0.045 2.46 0.091 0 0.151-0.483 0.151-1.132 0-1.026 0.030-1.132 0.302-1.132s0.302 0.106 0.302 1.132c0 0.649 0.060 1.132 0.151 1.132 0.226 0 0.196-2.159-0.030-2.385-0.196-0.196-0.755-0.242-0.921-0.075z"></path>
<path d="M24.060 16.226c-0.121 0.317 0.060 0.513 0.226 0.241 0.075-0.106 0.211-0.151 0.302-0.106 0.226 0.151 0.060 0.377-0.392 0.558-0.332 0.121-0.362 0.211-0.317 0.845l0.045 0.725h0.604c0.589 0 0.604-0.015 0.649-0.589 0.030-0.332-0.015-0.74-0.106-0.906-0.075-0.181-0.166-0.453-0.196-0.619-0.060-0.377-0.694-0.498-0.815-0.151zM24.906 17.736c0 0.468-0.045 0.528-0.377 0.528s-0.377-0.060-0.377-0.528c0-0.468 0.045-0.528 0.377-0.528s0.377 0.060 0.377 0.528z"></path>
<path d="M25.977 16.332c-0.015 0.272 0.091 0.468 0.287 0.574 0.226 0.121 0.302 0.317 0.302 0.77 0 0.543-0.030 0.604-0.332 0.558-0.226-0.030-0.362-0.166-0.392-0.392-0.060-0.438-0.332-0.438-0.332 0.015 0 0.438 0.272 0.709 0.679 0.709 0.74 0 0.936-1.026 0.317-1.766-0.181-0.226-0.392-0.528-0.438-0.649-0.045-0.136-0.091-0.060-0.091 0.181z"></path>
</svg>
