<!-- Generated by IcoMoon.io -->
<svg version="1.1" xmlns="http://www.w3.org/2000/svg" width="34" height="32" viewBox="0 0 34 32">
<title>Path-35</title>
<path fill="#375fc9" d="M16.764 31.982c-1.689 0-3.342-0.267-4.907-0.782-1.849-0.604-3.573-1.547-5.084-2.791-0.16-0.142-0.338-0.284-0.498-0.444-0.089-0.071-0.16-0.142-0.249-0.213-2.347-2.187-3.964-5.013-4.658-8.196 0-0.018 0-0.036 0-0.036l-0.018-0.053c-0.213-1.067-0.338-2.151-0.338-3.218 0-1.084 0.124-2.169 0.338-3.236 0.676-3.253 2.347-6.169 4.818-8.409 0.036-0.036 0.071-0.071 0.107-0.107 0.142-0.124 0.32-0.284 0.498-0.427 1.511-1.244 3.236-2.187 5.084-2.791v0c3.129-1.049 6.667-1.049 9.813-0.018v0.018c1.92 0.622 3.662 1.6 5.209 2.898 0.124 0.089 0.267 0.213 0.391 0.338 0.053 0.053 0.124 0.107 0.178 0.16 2.364 2.187 4.053 5.12 4.729 8.267v0.071c0.231 1.031 0.338 2.116 0.338 3.236 0 1.102-0.107 2.187-0.338 3.236 0 0 0 0.018 0 0.036-0.693 3.236-2.436 6.24-4.924 8.462-0.107 0.107-0.249 0.213-0.391 0.338-1.529 1.28-3.271 2.258-5.191 2.898v0c-1.529 0.498-3.129 0.747-4.747 0.764-0.053 0-0.107 0-0.16 0zM16.693 29.689c1.316 0.036 2.613-0.16 3.858-0.533l1.173-2.027-2.471-4.302h-4.96l-2.489 4.302 1.173 2.027c1.209 0.356 2.453 0.533 3.716 0.533zM23.716 25.973h2.329c1.867-1.778 3.2-4.071 3.804-6.542l-1.173-2.044h-4.96l-2.489 4.302 2.489 4.284zM7.484 25.973h2.347l2.471-4.284-2.471-4.302h-4.96l-1.173 2.027c0.604 2.524 1.902 4.782 3.787 6.56zM14.293 20.533h4.96l2.471-4.284-2.471-4.302h-4.96l-2.489 4.302 2.489 4.284zM23.716 15.093h4.96l1.173-2.044c-0.604-2.471-1.938-4.782-3.804-6.542h-2.329l-2.489 4.302 2.489 4.284zM4.871 15.093h4.96l2.471-4.284-2.471-4.302h-2.347c-1.902 1.813-3.182 4.053-3.787 6.56l1.173 2.027zM14.293 9.653h4.96l2.471-4.284-1.173-2.044c-2.436-0.711-5.138-0.711-7.573 0l-1.173 2.044 2.489 4.284z"></path>
</svg>
